<svg xmlns="http://www.w3.org/2000/svg" viewBox="0 0 64 64" role="img" aria-label="Kagan Bagdemir KB logo">
  <defs>
    <linearGradient id="kb-bg" x1="9" y1="7" x2="56" y2="58" gradientUnits="userSpaceOnUse">
      <stop offset="0" stop-color="#18201a"/>
      <stop offset="0.48" stop-color="#0b0e0b"/>
      <stop offset="1" stop-color="#172f2c"/>
    </linearGradient>
    <linearGradient id="kb-accent" x1="14" y1="16" x2="54" y2="50" gradientUnits="userSpaceOnUse">
      <stop offset="0" stop-color="#8ee8ab"/>
      <stop offset="0.55" stop-color="#73d6ff"/>
      <stop offset="1" stop-color="#f4bd50"/>
    </linearGradient>
    <filter id="kb-glow" x="-30%" y="-30%" width="160%" height="160%">
      <feGaussianBlur stdDeviation="1.6" result="blur"/>
      <feMerge>
        <feMergeNode in="blur"/>
        <feMergeNode in="SourceGraphic"/>
      </feMerge>
    </filter>
  </defs>
  <rect width="64" height="64" rx="15" fill="url(#kb-bg)"/>
  <path d="M10 42 42 10M22 55 56 21" stroke="#8ee8ab" stroke-width="1.1" stroke-linecap="round" opacity="0.18"/>
  <path d="M9 49H56M9 15H56" stroke="#ffffff" stroke-width="1" opacity="0.07"/>
  <rect x="7" y="7" width="50" height="50" rx="12" fill="none" stroke="url(#kb-accent)" stroke-width="1.6" opacity="0.9"/>
  <g fill="none" stroke-linecap="round" stroke-linejoin="round" filter="url(#kb-glow)">
    <path d="M17 15V49" stroke="#f2f7ef" stroke-width="5"/>
    <path d="M20 32 34 16M20 32 35 48" stroke="url(#kb-accent)" stroke-width="5"/>
    <path d="M36 15V49" stroke="#f2f7ef" stroke-width="5"/>
    <path d="M36 16H43C49 16 53 19.5 53 24.5S49 32 43 32H36" stroke="#f2f7ef" stroke-width="4.6"/>
    <path d="M36 32H44C51 32 55 35.6 55 40.7 55 46.1 50.5 49 43 49H36" stroke="#f2f7ef" stroke-width="4.6"/>
  </g>
  <circle cx="20" cy="32" r="2.6" fill="#f4bd50"/>
</svg>
